<svg class="cls"    width="278" height="126" viewBox="0 0 278 126" fill="black" xmlns="http://www.w3.org/2000/svg">
<path  d="M55.6132 14.3532L55.4462 15.3391C55.7338 15.3878 56.0283 15.3085 56.2526 15.122C56.4769 14.9355 56.6085 14.6604 56.613 14.3687L55.6132 14.3532ZM93.7515 10.0555L93.3262 10.9605C93.7018 11.137 94.1473 11.0632 94.4459 10.7751L93.7515 10.0555ZM145.503 10.8603L144.704 11.461C144.901 11.723 145.213 11.8719 145.541 11.8595C145.869 11.8471 146.169 11.675 146.346 11.3988L145.503 10.8603ZM186.237 11.4937L185.406 12.0504C185.64 12.4004 186.069 12.5658 186.478 12.4641L186.237 11.4937ZM237.722 29.4169L236.725 29.3377C236.7 29.6523 236.825 29.9602 237.062 30.1684C237.299 30.3766 237.621 30.4606 237.929 30.3952L237.722 29.4169ZM276.249 62.2144L275.249 62.1988C275.248 62.2735 275.255 62.3481 275.271 62.4212L276.249 62.2144ZM252.984 90.389L252.909 89.3918C252.508 89.4221 252.164 89.6899 252.036 90.0716L252.984 90.389ZM209.342 114.905L209.384 113.906C209.178 113.897 208.976 113.952 208.803 114.063L209.342 114.905ZM154.172 119.12L154.46 118.162C154.253 118.1 154.031 118.107 153.829 118.181L154.172 119.12ZM107.597 118.396L108.062 117.511C107.836 117.392 107.572 117.364 107.325 117.434L107.597 118.396ZM54.0574 114.393L54.5593 113.528C54.4062 113.439 54.2322 113.392 54.0551 113.393L54.0574 114.393ZM25.6296 95.5597L26.6294 95.5753C26.6366 95.1133 26.3264 94.7065 25.8789 94.5913L25.6296 95.5597ZM7.67525 68.9627L8.54658 69.4534C8.72621 69.1344 8.7172 68.7428 8.5231 68.4324L7.67525 68.9627ZM12.155 38.5924L12.8143 39.3443C13.0729 39.1176 13.1968 38.7739 13.1425 38.4343L12.155 38.5924ZM34.7913 21.822L34.7757 22.8219C35.328 22.8305 35.7826 22.3898 35.7912 21.8375L34.7913 21.822ZM56.613 14.3687C56.6158 14.1941 56.7334 13.8146 57.2144 13.2474C57.6754 12.7038 58.3855 12.0893 59.3426 11.4595C61.2526 10.2025 64.0383 8.95572 67.4616 8.11269C74.2985 6.42901 83.5793 6.37974 93.3262 10.9605L94.1769 9.15043C83.9666 4.35192 74.2102 4.39099 66.9833 6.17071C63.3746 7.05939 60.3717 8.38805 58.2431 9.78878C57.1809 10.4878 56.3091 11.2227 55.6891 11.9538C55.0891 12.6614 54.6266 13.4819 54.6133 14.3376L56.613 14.3687ZM94.4459 10.7751C100.717 4.72359 111.062 1.90938 121.066 2.15846C131.101 2.40832 140.393 5.7246 144.704 11.461L146.303 10.2595C141.452 3.80417 131.4 0.415149 121.116 0.159084C110.8 -0.0977461 99.8495 2.78151 93.0571 9.33586L94.4459 10.7751ZM146.346 11.3988C147.637 9.37906 150.173 7.62239 153.532 6.34017C156.867 5.06681 160.899 4.30653 165.019 4.19638C173.338 3.97397 181.616 6.39481 185.406 12.0504L187.067 10.937C182.698 4.41669 173.518 1.96845 164.965 2.1971C160.649 2.31248 156.391 3.10778 152.819 4.4717C149.269 5.82676 146.279 7.78909 144.661 10.3217L146.346 11.3988ZM186.478 12.4641C195.41 10.2418 208.625 8.48502 219.301 10.3559C224.637 11.291 229.228 13.1134 232.355 16.1257C235.441 19.0994 237.203 23.3288 236.725 29.3377L238.719 29.4961C239.238 22.9641 237.311 18.1231 233.742 14.6853C230.214 11.2861 225.182 9.35595 219.646 8.38595C208.58 6.44662 195.055 8.26917 185.995 10.5233L186.478 12.4641ZM237.929 30.3952C250.742 27.6783 260.066 32.7521 266.22 39.9616C272.423 47.2288 275.336 56.5996 275.249 62.1988L277.249 62.2299C277.344 56.0999 274.23 46.2656 267.741 38.6631C261.203 31.0029 251.172 25.5426 237.515 28.4387L237.929 30.3952ZM275.271 62.4212C276.04 66.058 275.179 72.4759 271.707 78.1719C268.27 83.8112 262.311 88.683 252.909 89.3918L253.059 91.3861C263.183 90.6229 269.686 85.331 273.415 79.2128C277.109 73.1513 278.118 66.2179 277.228 62.0075L275.271 62.4212ZM252.036 90.0716C248.299 101.237 240.263 107.29 231.82 110.516C223.35 113.753 214.518 114.121 209.384 113.906L209.3 115.904C214.58 116.125 223.714 115.755 232.534 112.384C241.381 109.003 249.959 102.58 253.932 90.7063L252.036 90.0716ZM208.803 114.063C198.625 120.575 190.57 123.215 182.359 123.451C174.1 123.689 165.594 121.502 154.46 118.162L153.885 120.078C165 123.412 173.794 125.698 182.416 125.45C191.084 125.201 199.489 122.397 209.881 115.747L208.803 114.063ZM153.829 118.181C145.268 121.316 137.986 123.314 130.777 123.455C123.592 123.596 116.41 121.894 108.062 117.511L107.133 119.281C115.732 123.797 123.245 125.603 130.816 125.455C138.362 125.307 145.894 123.217 154.516 120.059L153.829 118.181ZM107.325 117.434C94.4924 121.062 85.8201 122.667 78.1179 122.098C70.4479 121.53 63.6409 118.797 54.5593 113.528L53.5556 115.258C62.7487 120.592 69.8633 123.492 77.9704 124.092C86.0453 124.69 95.0056 122.995 107.87 119.358L107.325 117.434ZM54.0551 113.393C44.2672 113.416 37.355 112.212 32.9315 109.416C28.6237 106.693 26.524 102.353 26.6294 95.5753L24.6297 95.5442C24.5166 102.814 26.8116 107.913 31.8628 111.106C36.7983 114.226 44.2092 115.416 54.0598 115.393L54.0551 113.393ZM25.8789 94.5913C16.2756 92.1184 10.583 88.2344 7.9681 83.8654C5.3884 79.5552 5.67631 74.5501 8.54658 69.4534L6.80392 68.472C3.6738 74.0302 3.21591 79.8198 6.25199 84.8925C9.25287 89.9065 15.5376 93.9935 25.3802 96.5281L25.8789 94.5913ZM8.5231 68.4324C4.86946 62.5903 2.70911 58.3021 2.97868 54.0484C3.24503 49.8457 5.91934 45.3903 12.8143 39.3443L11.4957 37.8405C4.50212 43.973 1.30156 48.8904 0.982688 53.922C0.667034 58.9027 3.2111 63.7104 6.8274 69.4929L8.5231 68.4324ZM13.1425 38.4343C12.6539 35.3825 12.8751 32.9175 13.643 30.9363C14.4069 28.9656 15.7385 27.4029 17.5968 26.1881C21.3637 23.7254 27.2775 22.7053 34.7757 22.8219L34.8068 20.8221C27.2111 20.704 20.789 21.7116 16.5024 24.5141C14.3339 25.9318 12.7094 27.8111 11.7782 30.2135C10.8511 32.6055 10.6384 35.4449 11.1676 38.7505L13.1425 38.4343ZM35.7912 21.8375C35.8181 20.1048 36.351 18.7794 37.2499 17.759C38.1624 16.7234 39.5134 15.9337 41.279 15.403C44.833 14.3347 49.8287 14.3879 55.4462 15.3391L55.7801 13.3672C50.0469 12.3964 44.6922 12.2886 40.7033 13.4876C38.6974 14.0905 36.9788 15.0414 35.7493 16.4369C34.5063 17.8477 33.825 19.6438 33.7914 21.8064L35.7912 21.8375Z" fill="black"/>
</svg>
