<svg className="favorites" width="23" height="30" viewBox="0 0 23 30" fill="none" xmlns="http://www.w3.org/2000/svg">
<path d="M21.3325 28.9601L21.3324 28.9601L11.9938 23.3576L11.4793 23.0489L10.9648 23.3576L1.62847 28.9601C1.58906 28.9837 1.54051 28.9986 1.48808 28.9999C1.43563 29.0012 1.38577 28.9889 1.34423 28.9668C1.30294 28.9448 1.27381 28.9154 1.25578 28.8861C1.23797 28.857 1.23047 28.8275 1.23047 28.8V2.40069C1.23102 2.04283 1.37898 1.69111 1.65606 1.42512C1.93453 1.15779 2.32041 1.00057 2.73106 1H20.2299C20.6405 1.00057 21.0264 1.15779 21.3049 1.42512C21.5821 1.69123 21.7301 2.04314 21.7305 2.40117V28.8C21.7305 28.8275 21.723 28.857 21.7052 28.8861C21.6871 28.9154 21.658 28.9448 21.6167 28.9668C21.5752 28.9889 21.5253 29.0012 21.4729 28.9999C21.4204 28.9986 21.3719 28.9837 21.3325 28.9601Z" stroke="#0F0F0F" stroke-width="2"/>
</svg>
